<svg xmlns="http://www.w3.org/2000/svg" width="20" height="21" viewBox="0 0 20 21" fill="none">
  <g clip-path="url(#clip0_24_446)">
    <path d="M18.3333 20.5002L13.9583 16.3335L14.4833 18.0002H3.75001C3.19747 18.0002 2.66757 17.7807 2.27687 17.39C1.88617 16.9993 1.66667 16.4694 1.66667 15.9168V3.41683C1.66667 2.8643 1.88617 2.33439 2.27687 1.94369C2.66757 1.55299 3.19747 1.3335 3.75001 1.3335H16.25C16.8025 1.3335 17.3324 1.55299 17.7231 1.94369C18.1138 2.33439 18.3333 2.8643 18.3333 3.41683V20.5002ZM10 6.16683C7.76667 6.16683 6.20001 7.12516 6.20001 7.12516C7.05834 6.3585 8.55834 5.91683 8.55834 5.91683L8.41667 5.77516C7.00834 5.80016 5.73334 6.77516 5.73334 6.77516C4.30001 9.76683 4.39167 12.3502 4.39167 12.3502C5.55834 13.8585 7.29167 13.7502 7.29167 13.7502L7.88334 13.0002C6.84167 12.7752 6.18334 11.8502 6.18334 11.8502C6.18334 11.8502 7.75 12.9168 10 12.9168C12.25 12.9168 13.8167 11.8502 13.8167 11.8502C13.8167 11.8502 13.1583 12.7752 12.1167 13.0002L12.7083 13.7502C12.7083 13.7502 14.4417 13.8585 15.6083 12.3502C15.6083 12.3502 15.7 9.76683 14.2667 6.77516C14.2667 6.77516 12.9917 5.80016 11.5833 5.77516L11.4417 5.91683C11.4417 5.91683 12.9417 6.3585 13.8 7.12516C13.8 7.12516 12.2333 6.16683 10 6.16683ZM8.27501 9.32516C8.81667 9.32516 9.25834 9.80016 9.25001 10.3835C9.25001 10.9585 8.81667 11.4418 8.27501 11.4418C7.74167 11.4418 7.30834 10.9585 7.30834 10.3835C7.30834 9.80016 7.73334 9.32516 8.27501 9.32516ZM11.75 9.32516C12.2917 9.32516 12.725 9.80016 12.725 10.3835C12.725 10.9585 12.2917 11.4418 11.75 11.4418C11.2167 11.4418 10.7833 10.9585 10.7833 10.3835C10.7833 9.80016 11.2083 9.32516 11.75 9.32516Z" fill="white"/>
  </g>
  <defs>
    <clipPath id="clip0_24_446">
      <rect width="20" height="20" fill="white" transform="translate(0 0.5)"/>
    </clipPath>
  </defs>
</svg>