<svg xmlns="http://www.w3.org/2000/svg" width="20" height="21" viewBox="0 0 20 21" fill="none">
  <path d="M9.99999 2.1665C8.90564 2.1665 7.82201 2.38205 6.81096 2.80084C5.79991 3.21963 4.88125 3.83346 4.10743 4.60728C2.54463 6.17008 1.66666 8.2897 1.66666 10.4998C1.66666 14.1832 4.05832 17.3082 7.36666 18.4165C7.78332 18.4832 7.91666 18.2248 7.91666 17.9998V16.5915C5.60832 17.0915 5.11666 15.4748 5.11666 15.4748C4.73332 14.5082 4.19166 14.2498 4.19166 14.2498C3.43332 13.7332 4.24999 13.7498 4.24999 13.7498C5.08332 13.8082 5.52499 14.6082 5.52499 14.6082C6.24999 15.8748 7.47499 15.4998 7.94999 15.2998C8.02499 14.7582 8.24166 14.3915 8.47499 14.1832C6.62499 13.9748 4.68332 13.2582 4.68332 10.0832C4.68332 9.15817 4.99999 8.4165 5.54166 7.82484C5.45832 7.6165 5.16666 6.74984 5.62499 5.62484C5.62499 5.62484 6.32499 5.39984 7.91666 6.47484C8.57499 6.2915 9.29166 6.19984 9.99999 6.19984C10.7083 6.19984 11.425 6.2915 12.0833 6.47484C13.675 5.39984 14.375 5.62484 14.375 5.62484C14.8333 6.74984 14.5417 7.6165 14.4583 7.82484C15 8.4165 15.3167 9.15817 15.3167 10.0832C15.3167 13.2665 13.3667 13.9665 11.5083 14.1748C11.8083 14.4332 12.0833 14.9415 12.0833 15.7165V17.9998C12.0833 18.2248 12.2167 18.4915 12.6417 18.4165C15.95 17.2998 18.3333 14.1832 18.3333 10.4998C18.3333 9.40549 18.1178 8.32186 17.699 7.31081C17.2802 6.29976 16.6664 5.3811 15.8925 4.60728C15.1187 3.83346 14.2001 3.21963 13.189 2.80084C12.178 2.38205 11.0943 2.1665 9.99999 2.1665Z" fill="white"/>
</svg>