<svg xmlns="http://www.w3.org/2000/svg" width="20" height="21" viewBox="0 0 20 21" fill="none">
  <path d="M12.0833 13.3415C12.15 13.4165 12.15 13.5748 12.0833 13.6665C11.475 14.2498 10.3417 14.2998 10 14.2998C9.675 14.2998 8.54167 14.2498 7.95001 13.6665C7.86667 13.5748 7.86667 13.4165 7.95001 13.3415C8.04167 13.2582 8.18334 13.2582 8.26667 13.3415C8.65 13.7248 9.44167 13.8332 10 13.8332C10.575 13.8332 11.3833 13.7248 11.75 13.3415C11.8417 13.2582 11.9833 13.2582 12.0833 13.3415ZM8.95834 11.3665C8.95834 10.8915 8.56667 10.4998 8.09167 10.4998C7.61667 10.4998 7.22501 10.8915 7.22501 11.3665C7.22501 11.8415 7.61667 12.2415 8.09167 12.2332C8.56667 12.2332 8.95834 11.8415 8.95834 11.3665ZM11.9083 10.4998C11.4333 10.4998 11.0417 10.9165 11.0417 11.3748C11.0417 11.8332 11.4333 12.2415 11.9083 12.2415C12.3833 12.2415 12.775 11.8415 12.775 11.3748C12.775 10.9165 12.3833 10.4998 11.9083 10.4998ZM18.3333 10.4998C18.3333 15.0832 14.5833 18.8332 10 18.8332C5.41667 18.8332 1.66667 15.0832 1.66667 10.4998C1.66667 5.9165 5.41667 2.1665 10 2.1665C14.5833 2.1665 18.3333 5.9165 18.3333 10.4998ZM15.5583 10.4998C15.5583 9.82484 15 9.28317 14.35 9.28317C14.0167 9.28317 13.7167 9.4165 13.5 9.62484C12.6667 9.02484 11.525 8.6415 10.25 8.5915L10.8083 5.98317L12.6167 6.37484C12.6333 6.83317 13.0167 7.19984 13.4833 7.19984C13.9583 7.19984 14.35 6.80817 14.35 6.33317C14.35 5.85817 13.9583 5.4665 13.4833 5.4665C13.1417 5.4665 12.8417 5.6665 12.7083 5.95817L10.6833 5.52484C10.625 5.49984 10.5667 5.52484 10.525 5.55817C10.475 5.5915 10.45 5.6415 10.4417 5.69984L9.825 8.59984C8.53334 8.6415 7.36667 9.02484 6.51667 9.63317C6.3 9.42484 6 9.29984 5.675 9.29984C5.00001 9.29984 4.45834 9.8415 4.45834 10.4998C4.45834 11.0082 4.75834 11.4248 5.175 11.6165C5.15834 11.7498 5.15 11.8498 5.15 11.9832C5.15 13.8332 7.32501 15.3748 10 15.3748C12.6917 15.3748 14.875 13.8582 14.875 11.9832C14.875 11.8665 14.8667 11.7498 14.8417 11.6165C15.2583 11.4248 15.5583 10.9998 15.5583 10.4998Z" fill="white"/>
</svg>