<svg xmlns="http://www.w3.org/2000/svg" width="28" height="27" viewBox="0 0 28 27" fill="none">
<path fill-rule="evenodd" clip-rule="evenodd" d="M6.84211 0.5C6.84211 0.5 7.14412 3.31891 8.3205 4.49529C9.49688 5.67167 12.3158 5.97368 12.3158 5.97368C12.3158 5.97368 9.49688 6.2757 8.3205 7.45208C7.14412 8.62846 6.84211 11.4474 6.84211 11.4474C6.84211 11.4474 6.54009 8.62846 5.36371 7.45208C4.18733 6.2757 1.36842 5.97368 1.36842 5.97368C1.36842 5.97368 4.18733 5.67167 5.36371 4.49529C6.54009 3.31891 6.84211 0.5 6.84211 0.5ZM19.1579 4.60526C19.1579 4.60526 19.6109 8.83363 21.3755 10.5982C23.1401 12.3628 27.3684 12.8158 27.3684 12.8158C27.3684 12.8158 23.1401 13.2688 21.3755 15.0334C19.6109 16.7979 19.1579 21.0263 19.1579 21.0263C19.1579 21.0263 18.7049 16.7979 16.9403 15.0334C15.1757 13.2688 10.9474 12.8158 10.9474 12.8158C10.9474 12.8158 15.1757 12.3628 16.9403 10.5982C18.7049 8.83363 19.1579 4.60526 19.1579 4.60526ZM8.69009 17.8099C7.21962 16.3394 6.84211 12.8158 6.84211 12.8158C6.84211 12.8158 6.46459 16.3394 4.99412 17.8099C3.52364 19.2804 0 19.6579 0 19.6579C0 19.6579 3.52364 20.0354 4.99412 21.5059C6.46459 22.9764 6.84211 26.5 6.84211 26.5C6.84211 26.5 7.21962 22.9764 8.69009 21.5059C10.1606 20.0354 13.6842 19.6579 13.6842 19.6579C13.6842 19.6579 10.1606 19.2804 8.69009 17.8099Z" fill="url(#paint0_linear_9_242)"/>
<defs>
<linearGradient id="paint0_linear_9_242" x1="1.85139" y1="2.55263" x2="28.8869" y2="5.05099" gradientUnits="userSpaceOnUse">
<stop offset="0.0695937" stop-color="#4467FF"/>
<stop offset="0.816425" stop-color="#7241FF"/>
</linearGradient>
</defs>
</svg>