<svg xmlns="http://www.w3.org/2000/svg" width="20" height="21" viewBox="0 0 20 21" fill="none">
  <path d="M18.7167 5.50016C18.075 5.79183 17.3833 5.9835 16.6667 6.07516C17.4 5.6335 17.9667 4.9335 18.2333 4.09183C17.5417 4.5085 16.775 4.80016 15.9667 4.96683C15.3083 4.25016 14.3833 3.8335 13.3333 3.8335C11.375 3.8335 9.77501 5.4335 9.77501 7.4085C9.77501 7.69183 9.80834 7.96683 9.86667 8.22516C6.90001 8.07516 4.25834 6.65016 2.50001 4.49183C2.19167 5.01683 2.01667 5.6335 2.01667 6.2835C2.01667 7.52516 2.64167 8.62516 3.60834 9.25016C3.01667 9.25016 2.46667 9.0835 1.98334 8.8335V8.8585C1.98334 10.5918 3.21667 12.0418 4.85001 12.3668C4.32561 12.5103 3.77509 12.5303 3.24167 12.4252C3.46801 13.1356 3.91129 13.7572 4.50919 14.2026C5.10709 14.648 5.82955 14.8949 6.57501 14.9085C5.31137 15.9089 3.745 16.4496 2.13334 16.4418C1.85001 16.4418 1.56667 16.4252 1.28334 16.3918C2.86667 17.4085 4.75001 18.0002 6.76667 18.0002C13.3333 18.0002 16.9417 12.5502 16.9417 7.82516C16.9417 7.66683 16.9417 7.51683 16.9333 7.3585C17.6333 6.8585 18.2333 6.22516 18.7167 5.50016Z" fill="white"/>
</svg>